####
#
# OBJ File Generated by Meshlab
#
####
# Object pelvis.obj
#
# Vertices: 36
# Faces: 64
#
####
vn 0.000000 -3.665699 0.000000
v -0.000000 -0.030000 -0.029995
vn -1.517340 -3.664662 -2.628155
v 0.000002 -0.030000 -0.029996
vn 1.570796 -1.572059 1.570796
v 0.015000 -0.030000 0.040000
vn -2.627643 -3.665434 -1.517599
v 0.000004 -0.030000 -0.029998
vn 1.570796 -1.571294 -1.570796
v 0.015000 -0.030000 -0.040000
vn -3.034477 -3.665257 0.000011
v 0.000005 -0.030000 -0.030000
vn -2.627632 -3.665434 1.517618
v 0.000004 -0.030000 -0.030003
vn -1.517320 -3.664662 2.628166
v 0.000002 -0.030000 -0.030004
vn 0.000000 -3.665699 0.000000
v -0.000000 -0.030000 -0.030005
vn -1.570796 -1.571388 -1.570796
v -0.015000 -0.030000 -0.040000
vn 1.517340 -3.664662 2.628155
v -0.000002 -0.030000 -0.030004
vn 2.627643 -3.665434 1.517599
v -0.000004 -0.030000 -0.030003
vn 3.034477 -3.665257 -0.000011
v -0.000005 -0.030000 -0.030000
vn -1.570796 -1.571125 1.570796
v -0.015000 -0.030000 0.040000
vn 2.627632 -3.665435 -1.517618
v -0.000004 -0.030000 -0.029998
vn 1.517320 -3.664662 -2.628166
v -0.000002 -0.030000 -0.029996
vn -1.517320 3.664662 -2.628166
v 0.000002 0.030000 -0.029996
vn 0.000000 3.665699 0.000000
v 0.000000 0.030000 -0.029995
vn 1.570796 1.571749 1.570796
v 0.015000 0.030000 0.040000
vn -1.570796 1.571421 1.570796
v -0.015000 0.030000 0.040000
vn -1.517340 3.664662 2.628155
v 0.000002 0.030000 -0.030004
vn -2.627643 3.665434 1.517599
v 0.000004 0.030000 -0.030003
vn 1.570796 1.571342 -1.570796
v 0.015000 0.030000 -0.040000
vn -3.034477 3.665257 -0.000011
v 0.000005 0.030000 -0.030000
vn -2.627632 3.665434 -1.517618
v 0.000004 0.030000 -0.029998
vn 1.517340 3.664662 -2.628155
v -0.000002 0.030000 -0.029996
vn 2.627643 3.665434 -1.517599
v -0.000004 0.030000 -0.029998
vn -1.570796 1.570913 -1.570796
v -0.015000 0.030000 -0.040000
vn 3.034477 3.665257 0.000011
v -0.000005 0.030000 -0.030000
vn 2.627632 3.665434 1.517618
v -0.000004 0.030000 -0.030003
vn 1.517320 3.664662 2.628166
v -0.000002 0.030000 -0.030004
vn 0.000000 3.665698 0.000000
v 0.000000 0.030000 -0.030005
vn -0.000011 0.000000 -3.034298
v -0.000000 -0.030000 -0.029995
vn 0.000011 -0.000000 -3.034298
v 0.000000 0.030000 -0.029995
vn 0.000011 -0.000000 3.034298
v -0.000000 -0.030000 -0.030005
vn -0.000011 0.000000 3.034298
v 0.000000 0.030000 -0.030005
# 36 vertices, 0 vertices normals

f 1//1 2//2 3//3
f 3//3 2//2 4//4
f 3//3 4//4 5//5
f 5//5 4//4 6//6
f 5//5 6//6 7//7
f 7//7 8//8 5//5
f 5//5 8//8 9//9
f 5//5 9//9 10//10
f 10//10 9//9 11//11
f 11//11 12//12 10//10
f 10//10 12//12 13//13
f 10//10 13//13 14//14
f 14//14 13//13 15//15
f 14//14 15//15 3//3
f 3//3 15//15 16//16
f 3//3 16//16 1//1
f 17//17 18//18 19//19
f 19//19 18//18 20//20
f 21//21 22//22 23//23
f 23//23 22//22 24//24
f 23//23 24//24 19//19
f 19//19 24//24 25//25
f 19//19 25//25 17//17
f 18//18 26//26 20//20
f 20//20 26//26 27//27
f 20//20 27//27 28//28
f 28//28 27//27 29//29
f 29//29 30//30 28//28
f 28//28 30//30 31//31
f 28//28 31//31 23//23
f 23//23 31//31 32//32
f 23//23 32//32 21//21
f 3//3 5//5 19//19
f 19//19 5//5 23//23
f 14//14 3//3 20//20
f 20//20 3//3 19//19
f 10//10 14//14 28//28
f 28//28 14//14 20//20
f 5//5 10//10 23//23
f 23//23 10//10 28//28
f 33//33 34//34 2//2
f 2//2 34//34 17//17
f 2//2 17//17 4//4
f 4//4 17//17 25//25
f 4//4 25//25 6//6
f 6//6 25//25 24//24
f 6//6 24//24 7//7
f 7//7 24//24 22//22
f 7//7 22//22 8//8
f 8//8 22//22 21//21
f 8//8 21//21 35//35
f 35//35 21//21 36//36
f 35//35 36//36 11//11
f 11//11 36//36 31//31
f 11//11 31//31 12//12
f 12//12 31//31 30//30
f 12//12 30//30 13//13
f 13//13 30//30 29//29
f 13//13 29//29 15//15
f 15//15 29//29 27//27
f 15//15 27//27 16//16
f 16//16 27//27 26//26
f 16//16 26//26 33//33
f 33//33 26//26 34//34
# 64 faces, 0 coords texture

# End of File
